<?xml version="1.0" standalone="no"?>
<!DOCTYPE svg PUBLIC "-//W3C//DTD SVG 20010904//EN"
 "http://www.w3.org/TR/2001/REC-SVG-20010904/DTD/svg10.dtd">
<svg version="1.0" xmlns="http://www.w3.org/2000/svg"
 width="256.000000pt" height="256.000000pt" viewBox="0 0 256.000000 256.000000"
 preserveAspectRatio="xMidYMid meet">
<metadata>
Created by potrace 1.14, written by Peter Selinger 2001-2017
</metadata>
<g transform="translate(0.000000,256.000000) scale(0.100000,-0.100000)"
fill="#000000" stroke="none">
<path d="M493 2189 c-18 -5 -49 -25 -68 -45 -68 -68 -65 -27 -65 -858 0 -504
4 -764 11 -790 13 -48 80 -113 130 -126 25 -7 307 -10 802 -8 l764 3 41 29
c23 16 52 45 65 65 l22 36 3 763 c2 516 -1 776 -8 803 -14 49 -79 115 -128
129 -48 13 -1523 12 -1569 -1z m1589 -107 l33 -32 0 -770 0 -770 -33 -32 -32
-33 -770 0 -770 0 -32 33 -33 32 0 769 0 769 25 27 c14 15 34 31 45 36 11 4
361 7 777 6 l758 -2 32 -33z"/>
<path d="M815 1859 c-99 -19 -179 -78 -222 -167 -38 -78 -40 -193 -3 -265 23
-47 101 -129 130 -139 12 -4 10 -14 -10 -54 -35 -68 -36 -187 -2 -256 31 -63
80 -113 144 -146 l53 -27 415 0 415 0 56 26 c79 37 133 90 171 166 86 176 12
381 -170 466 -50 23 -79 30 -132 31 l-69 1 -21 47 c-67 148 -234 238 -392 211
l-63 -11 -35 32 c-79 73 -173 103 -265 85z m544 -209 c86 -43 147 -127 165
-230 3 -14 5 -26 5 -27 1 0 20 5 44 12 50 15 132 10 181 -10 20 -9 55 -32 77
-52 136 -123 109 -339 -54 -429 l-52 -29 -391 -2 c-433 -3 -436 -3 -502 60
-41 39 -59 75 -68 133 -14 93 43 194 130 230 l44 18 4 76 c8 123 74 218 181
259 69 26 174 22 236 -9z"/>
</g>
</svg>
